HIERARCHY
ROOT root
{
	OFFSET	0	13.1	24.9
	CHANNELS 6  Xposition Yposition Zposition Xrotation Yrotation Zrotation
	JOINT spine_1
	{
		OFFSET	0	9.99999	0
		CHANNELS 3  Xrotation Yrotation Zrotation
		JOINT spine_2
		{
			OFFSET	0	112	-10
			CHANNELS 3  Xrotation Yrotation Zrotation
			JOINT spine_3
			{
				OFFSET	0	206.5	19.3
				CHANNELS 3  Xrotation Yrotation Zrotation
				JOINT spine_4
				{
					OFFSET	0	110.4	14.6
					CHANNELS 3  Xrotation Yrotation Zrotation
					JOINT neck_1
					{
						OFFSET	0	71.8	-50.3
						CHANNELS 3  Xrotation Yrotation Zrotation
						JOINT neck_2
						{
							OFFSET	0	86.2	-25.8
							CHANNELS 3  Xrotation Yrotation Zrotation
							JOINT head_ee
							{
								OFFSET	0	179.8	-8.7
								CHANNELS 3  Xrotation Yrotation Zrotation
								End Site
								{
									OFFSET	1	0	0
								}
							}
						}
					}
					JOINT left_clavicle
					{
						OFFSET	-43.2	22.4	-70.8
						CHANNELS 3  Xrotation Yrotation Zrotation
						JOINT left_shoulder
						{
							OFFSET	-93.9	-5.79999	48.7
							CHANNELS 3  Xrotation Yrotation Zrotation
							JOINT left_elbow
							{
								OFFSET	-291.4	-30.8	15.2
								CHANNELS 3  Xrotation Yrotation Zrotation
								JOINT left_lowarm_twist
								{
									OFFSET	-110.7	-3.89999	13.6
									CHANNELS 3  Xrotation Yrotation Zrotation
									JOINT left_hand
									{
										OFFSET	-110.7	-3.89999	13.6
										CHANNELS 3  Xrotation Yrotation Zrotation
										JOINT left_ee
										{
											OFFSET	-80.8	-5.10001	12.1
											CHANNELS 3  Xrotation Yrotation Zrotation
											End Site
											{
												OFFSET	1	0	0
											}
										}
									}
								}
							}
						}
					}
					JOINT right_clavicle
					{
						OFFSET	43.2	22.4	-70.8
						CHANNELS 3  Xrotation Yrotation Zrotation
						JOINT right_shoulder
						{
							OFFSET	93.9	-5.79999	48.7
							CHANNELS 3  Xrotation Yrotation Zrotation
							JOINT right_elbow
							{
								OFFSET	291.4	-30.8	15.2
								CHANNELS 3  Xrotation Yrotation Zrotation
								JOINT right_lowarm_twist
								{
									OFFSET	110.7	-3.89999	13.6
									CHANNELS 3  Xrotation Yrotation Zrotation
									JOINT right_hand
									{
										OFFSET	110.7	-3.89999	13.6
										CHANNELS 3  Xrotation Yrotation Zrotation
										JOINT right_ee
										{
											OFFSET	80.8	-5.10001	12.1
											CHANNELS 3  Xrotation Yrotation Zrotation
											End Site
											{
												OFFSET	1	0	0
											}
										}
									}
								}
							}
						}
					}
				}
			}
		}
	}
	JOINT left_hip
	{
		OFFSET	-82.8	-127.5	0.300001
		CHANNELS 3  Xrotation Yrotation Zrotation
		JOINT left_knee
		{
			OFFSET	-28.2	-396.7	2.2
			CHANNELS 3  Xrotation Yrotation Zrotation
			JOINT left_ankle
			{
				OFFSET	-11.7	-411.3	35.4
				CHANNELS 3  Xrotation Yrotation Zrotation
				JOINT left_toes
				{
					OFFSET	0	-60	-88.6
					CHANNELS 3  Xrotation Yrotation Zrotation
					JOINT left_foot_ee
					{
						OFFSET	-22.5	-16.5	-42.2
						CHANNELS 3  Xrotation Yrotation Zrotation
						End Site
						{
							OFFSET	1	0	0
						}
					}
				}
			}
		}
	}
	JOINT right_hip
	{
		OFFSET	82.8	-127.5	0.300001
		CHANNELS 3  Xrotation Yrotation Zrotation
		JOINT right_knee
		{
			OFFSET	28.2	-396.7	2.2
			CHANNELS 3  Xrotation Yrotation Zrotation
			JOINT right_ankle
			{
				OFFSET	11.7	-411.3	35.4
				CHANNELS 3  Xrotation Yrotation Zrotation
				JOINT right_toes
				{
					OFFSET	0	-60	-88.6
					CHANNELS 3  Xrotation Yrotation Zrotation
					JOINT right_foot_ee
					{
						OFFSET	22.5	-16.5	-42.2
						CHANNELS 3  Xrotation Yrotation Zrotation
						End Site
						{
							OFFSET	1	0	0
						}
					}
				}
			}
		}
	}
}
MOTION
Frames: 9
Frame Time: 0.02
1880.6 718.199 -651.801 1.47361 -62.7853 10.5922 1.14777 -0.571716 -4.00507 1.15664 -0.315917 -4.03327 1.18069 0.45659 -4.0198 1.15819 -0.183457 -4.04145 -10.8159 -9.08582 2.87162 -10.9386 -19.0541 0.365781 -0.0 0.0 -0.0 5.93553 -12.5771 11.0 -23.5163 -42.9905 72.1175 0.699607 -19.1146 0.117795 51.4837 -1.07706 -6.26947 -3.2237 26.4032 -7.50933 -0.0 0.0 -0.0 -2.90239 -6.64625 4.45306 3.07072 29.3452 -60.7001 0.653689 17.943 -0.103202 39.7329 0.335441 4.96421 4.84915 16.8277 -26.0365 0.0 0.0 0.0 -8.21473 -15.9868 -7.17644 -1.53711 0.0602318 0.228195 39.2207 17.6098 -4.90595 4.1333 -0.0 -0.0 -0.0 0.0 -0.0 -4.30802 -7.84626 -12.3259 -8.13844 -0.248549 -1.22323 8.02736 6.49534 1.18636 16.4885 -0.0 -0.0 0.0 0.0 0.0 
1882.89 716.856 -651.593 1.45539 -62.8042 10.1858 1.09544 -0.587497 -3.97604 1.10417 -0.333508 -4.0053 1.12943 0.437528 -3.99529 1.10721 -0.19842 -4.01425 -10.3762 -7.82032 3.12457 -10.4453 -16.8298 1.02513 -0.0 0.0 -0.0 5.81183 -11.0512 10.8275 -24.1425 -43.0412 71.9911 0.701289 -19.1572 0.118346 52.5721 -1.15904 -6.38222 -3.34031 28.5851 -6.89135 -0.0 0.0 -0.0 -2.67731 -6.38865 4.08931 3.20106 29.643 -59.3223 0.647691 17.7888 -0.101362 40.6937 0.385837 5.0763 5.35198 15.6215 -30.5052 0.0 0.0 0.0 -6.96312 -17.8338 -6.54078 -5.46593 0.186145 0.817888 40.0937 17.2986 -4.98012 -0.394344 0.0 0.0 -0.0 0.0 -0.0 -4.154 -8.21051 -11.875 -9.15642 -0.267334 -1.37831 9.87035 4.73681 1.43838 19.2544 -0.0 -0.0 0.0 0.0 0.0 
1882.65 716.124 -650.292 1.14975 -63.0324 9.90143 0.856711 -0.664979 -4.06594 0.865815 -0.405128 -4.09994 0.897528 0.401786 -4.10026 0.874161 -0.250253 -4.11227 -9.37641 -7.35569 1.77618 -9.42005 -15.0277 -0.0306938 -0.0 0.0 -0.0 5.31477 -10.6944 9.80304 -23.7175 -43.2577 72.8142 0.830063 -22.3518 0.163997 54.3728 -1.29934 -6.5653 -3.19552 28.8379 -5.96061 -0.0 0.0 -0.0 -2.52874 -5.67836 3.94121 4.45533 30.2807 -58.4161 0.641382 17.6263 -0.099443 38.7033 0.28354 4.84321 5.15116 13.2749 -30.3095 0.0 0.0 0.0 -3.81057 -17.6047 -6.15502 -11.5358 0.300475 1.74187 36.1382 13.4807 -4.55206 2.52159 -0.0 -0.0 -0.0 0.0 -0.0 -3.62346 -9.94887 -11.799 -10.6143 -0.289432 -1.60091 15.9467 2.70049 2.25135 18.2575 -0.0 -0.0 0.0 0.0 0.0 
1882.31 713.922 -639.356 0.627087 -63.7016 9.82615 0.729684 -0.667648 -4.0522 0.738724 -0.408664 -4.08639 0.770903 0.40471 -4.08678 0.747686 -0.245241 -4.09942 -9.19928 -6.76006 2.13521 -9.22765 -14.1511 0.489393 -0.0 0.0 -0.0 5.30427 -9.85431 9.83072 -24.5455 -42.7619 71.1059 0.766394 -20.7892 0.140587 55.8258 -1.41672 -6.7098 -2.67413 28.8078 -3.16717 -0.0 0.0 -0.0 -2.35304 -3.52997 3.97777 5.52595 30.254 -58.4948 0.654527 17.9645 -0.10346 40.0436 0.351534 5.00056 5.19619 14.6584 -29.8718 0.0 0.0 0.0 3.31938 -21.2801 -5.2877 -23.9959 0.226841 3.64854 33.5084 16.6899 -4.32954 9.68562 -0.0 -0.0 -0.0 0.0 -0.0 -3.41153 -7.63887 -13.0507 -8.87516 -0.26242 -1.33543 16.332 0.67442 2.28885 19.061 -0.0 -0.0 0.0 0.0 0.0 
1883.29 715.425 -634.516 0.426785 -64.4335 9.7084 0.602158 -0.597346 -4.17145 0.611776 -0.330935 -4.20094 0.639441 0.51336 -4.1826 0.615068 -0.15304 -4.21116 -9.93447 -6.59782 2.13728 -9.97726 -13.8606 0.439755 -0.0 0.0 -0.0 4.98118 -7.56169 9.28966 -24.5475 -43.726 70.2415 0.78572 -21.267 0.147521 56.4928 -1.47182 -6.77513 -2.57 28.6599 -2.68484 -0.0 0.0 -0.0 -2.39166 -3.29707 4.08912 6.23741 30.3782 -58.1879 0.687124 18.7976 -0.113739 38.76 0.286342 4.84989 4.78212 11.3095 -28.5456 0.0 0.0 0.0 6.27721 -23.5262 -3.89229 -28.0499 0.113804 4.2603 31.2071 19.2421 -4.12464 11.3066 -0.0 -0.0 -0.0 0.0 -0.0 -4.32551 -8.59221 -14.0826 -9.01508 -0.26489 -1.35676 22.325 -0.696355 3.03247 19.4176 -0.0 -0.0 0.0 0.0 0.0 
1879.46 718.07 -626.389 1.03576 -64.202 10.3083 0.324261 -0.730317 -4.15522 0.333744 -0.464668 -4.19318 0.372089 0.400043 -4.19982 0.347582 -0.267656 -4.21031 -12.2988 -7.0409 1.09371 -12.4079 -14.0615 -0.984778 -0.0 0.0 -0.0 4.9816 -7.43486 9.29747 -24.4682 -42.8217 69.9554 0.793339 -21.4546 0.150297 58.0878 -1.60668 -6.92875 -2.57558 28.7346 -2.67579 -0.0 0.0 -0.0 -2.17875 -1.24624 4.01822 8.27426 29.5118 -58.3678 0.667688 18.3019 -0.107556 39.9705 0.347731 4.99202 4.46774 12.831 -25.3902 0.0 0.0 0.0 9.28232 -21.3702 -4.04696 -30.7084 0.0162813 4.65661 22.8186 18.8814 -3.1425 14.818 -0.0 -0.0 -0.0 0.0 -0.0 -3.45835 -10.5011 -14.4063 -10.8472 -0.292436 -1.63652 22.4119 -0.976578 3.04136 20.1047 -0.0 -0.0 0.0 0.0 0.0 
1884.71 718.897 -620.982 3.57417 -65.0363 12.8467 0.0573647 -0.643161 -4.20117 0.0671032 -0.374772 -4.2335 0.0997709 0.516624 -4.21857 0.0749777 -0.155482 -4.24719 -11.66 -5.94777 2.43887 -11.7232 -12.8454 0.700081 -0.0 0.0 -0.0 4.8579 -7.26077 9.05273 -25.7991 -42.9882 69.3877 0.829769 -22.3446 0.163885 59.3268 -1.71436 -7.04549 -2.60404 28.6079 -2.89554 -0.0 0.0 -0.0 -2.07794 -1.88094 3.72414 9.659 29.4932 -58.3253 0.7411 20.1591 -0.131739 39.0752 0.302038 4.88703 4.24412 12.7748 -23.7744 0.0 0.0 0.0 10.1845 -19.7507 -4.26716 -34.5826 -0.158555 5.22523 19.2789 18.4947 -2.69304 16.1301 -0.0 -0.0 -0.0 0.0 -0.0 -3.53347 -10.1557 -14.5467 -13.829 -0.318102 -2.09327 23.4539 -0.365514 3.16943 21.4651 -0.0 -0.0 0.0 0.0 0.0 
1883.38 714.982 -614.664 3.44357 -66.0051 12.7272 -0.202968 -0.649168 -4.09593 -0.19372 -0.387445 -4.12886 -0.160363 0.501043 -4.11664 -0.183972 -0.154814 -4.14408 -11.6482 -6.00724 2.29029 -11.7136 -12.8618 0.541437 -0.0 0.0 -0.0 4.4317 -6.06833 8.249 -25.6437 -42.6918 69.3822 0.88062 -23.5682 0.183719 60.1367 -1.78611 -7.12052 -2.6719 28.8644 -3.12518 -0.0 0.0 -0.0 -2.07451 -1.71811 3.74338 9.91635 29.2295 -56.6561 0.91917 24.4809 -0.199415 39.1849 0.307547 4.89993 4.09456 12.8423 -22.6508 0.0 0.0 0.0 13.0183 -18.1621 -5.00913 -37.8358 -0.334852 5.69291 17.7401 15.2947 -2.47058 17.2201 -0.0 -0.0 -0.0 0.0 -0.0 -4.20388 -9.75031 -15.3426 -11.6185 -0.301355 -1.75453 24.9184 -1.39785 3.33525 21.8526 -0.0 -0.0 0.0 0.0 0.0 
1892.39 714.006 -611.501 6.28115 -66.2909 15.1409 -0.398422 -0.492761 -4.01912 -0.389469 -0.23623 -4.04228 -0.367394 0.645135 -3.99752 -0.389688 0.00624266 -4.04916 -11.845 -5.47274 2.76918 -11.8976 -12.1584 1.13218 -0.0 0.0 -0.0 4.12209 -4.94817 7.68756 -26.4696 -42.2594 69.2395 0.893273 -23.8692 0.188809 59.6493 -1.74281 -7.07549 -2.86054 28.6332 -4.26556 -0.0 0.0 -0.0 -1.40359 -1.05059 2.55994 10.732 28.6117 -56.0989 0.90186 24.0726 -0.192298 39.082 0.302379 4.88783 3.62302 13.7031 -18.8463 0.0 0.0 0.0 16.2033 -21.3787 -2.6426 -44.9777 -0.813422 6.6806 15.7929 17.9301 -2.23316 17.0602 -0.0 -0.0 -0.0 0.0 -0.0 -6.32034 -10.815 -15.3073 -11.1756 -0.296428 -1.68676 25.5175 -0.394921 3.41036 23.5572 -0.0 -0.0 0.0 0.0 0.0 
